#!OML:ASF E:\emotionWalksFemale\Project 1\Capture day 1\Session 1\Female1.ASF
:FULLY-SPECIFIED
:DEGREES
2255
root 11.7622 15.2486 -12.5698 18.7722 -22.3795 -8.3609
lowerback 23.2269 2.82133 -5.36338
upperback 0.95044 2.21267 -0.234044
thorax -12.1881 1.30099 2.07715
lowerneck -8.37213 4.20632 -0.951624
upperneck -9.67503 5.94989 4.4934
head -1.82297 2.94679 1.62916
rclavicle -6.59965e-014 4.77083e-015
rhumerus -37.8369 8.72147 -85.6113
rradius 40.238
rwrist 4.26696
rhand -1.06886 -50.2135
rfingers 7.12502
rthumb 24.5662 -78.6574
lclavicle -6.59965e-014 4.77083e-015
lhumerus -29.3785 5.72911 72.0594
lradius 46.9507
lwrist -3.96076
lhand -15.9237 -38.6006
lfingers 7.12502
lthumb 10.2737 -8.87149
rfemur -12.3706 -6.62742 30.1762
rtibia 31.6071
rfoot -20.5951 -42.5124
rtoes 41.0579
lfemur -43.4556 -1.16898 -14.9785
ltibia 47.7648
lfoot -23.1271 11.428
ltoes -14.7054
2256
root 11.7705 15.2591 -12.5115 18.8329 -22.2772 -8.42013
lowerback 23.2403 2.77221 -5.35033
upperback 0.982506 2.15331 -0.220218
thorax -12.1537 1.27222 2.10579
lowerneck -8.51516 4.20451 -0.794455
upperneck -9.54643 5.91775 4.29902
head -1.74345 2.93137 1.54313
rclavicle -2.14687e-014 -1.11319e-014
rhumerus -37.8487 8.84267 -85.699
rradius 40.4236
rwrist 4.0885
rhand -1.28276 -50.1217
rfingers 7.12502
rthumb 24.3612 -78.5933
lclavicle -2.14687e-014 -1.11319e-014
lhumerus -29.1468 5.73626 72.083
lradius 46.8777
lwrist -3.93559
lhand -15.5465 -38.2617
lfingers 7.12502
lthumb 10.6376 -8.55098
rfemur -12.5676 -6.66487 30.3166
rtibia 31.8406
rfoot -23.7978 -41.1686
rtoes 44.933
lfemur -43.2387 -1.24454 -15.0274
ltibia 47.6797
lfoot -23.3823 11.4186
ltoes -14.1005
2257
root 11.779 15.2659 -12.4612 18.9664 -22.0982 -8.45069
lowerback 23.2853 2.68767 -5.33315
upperback 0.881168 2.04758 -0.186229
thorax -12.2875 1.22892 2.16666
lowerneck -8.36693 4.23884 -0.791734
upperneck -9.42629 5.95631 4.21994
head -1.72699 2.95172 1.51483
rclavicle 5.00937e-014 -1.59028e-015
rhumerus -37.9951 8.88313 -85.7483
rradius 40.4798
rwrist 4.00829
rhand -1.34835 -49.9181
rfingers 7.12502
rthumb 24.2983 -78.3981
lclavicle 5.00937e-014 -1.59028e-015
lhumerus -29.2678 5.64614 72.1212
lradius 46.783
lwrist -3.93118
lhand -15.184 -37.9627
lfingers 7.12502
lthumb 10.9873 -8.27026
rfemur -13.0927 -6.87967 30.5876
rtibia 32.0573
rfoot -22.8637 -41.412
rtoes 44.4182
lfemur -43.1523 -1.3795 -15.0667
ltibia 47.5641
lfoot -23.5674 11.4065
ltoes -13.9116
2258
root 11.7869 15.2736 -12.408 18.9965 -22.0607 -8.46138
lowerback 23.4011 2.67214 -5.4201
upperback 0.776197 2.00023 -0.144057
thorax -12.4744 1.2197 2.27499
lowerneck -8.18918 4.29958 -0.847057
upperneck -9.298 6.03799 4.19889
head -1.71836 2.99469 1.51482
rclavicle 4.37326e-014 -1.11319e-014
rhumerus -38.1556 8.99213 -85.7861
rradius 40.4556
rwrist 3.89122
rhand -1.41859 -49.685
rfingers 7.12502
rthumb 24.2309 -78.1741
lclavicle 4.37326e-014 -1.11319e-014
lhumerus -29.5436 5.58359 72.1647
lradius 46.7604
lwrist -4.00052
lhand -15.0578 -37.8911
lfingers 7.12502
lthumb 11.109 -8.20517
rfemur -13.5311 -7.07199 30.7336
rtibia 32.3936
rfoot -22.255 -41.2986
rtoes 44.0316
lfemur -42.8931 -1.52336 -15.1321
ltibia 47.399
lfoot -23.6631 11.5331
ltoes -14.0434
2259
root 11.7932 15.2871 -12.3482 19.0003 -22.1491 -8.42717
lowerback 23.3905 2.7115 -5.53421
upperback 0.776887 2.01876 -0.167006
thorax -12.4728 1.23391 2.30814
lowerneck -8.23765 4.27958 -1.03281
upperneck -9.20745 6.03235 4.40423
head -1.69493 2.9975 1.61472
rclavicle -1.90833e-014 -1.27222e-014
rhumerus -38.2397 9.05093 -85.8247
rradius 40.552
rwrist 3.89613
rhand -1.09715 -49.9604
rfingers 7.12502
rthumb 24.5391 -78.4079
lclavicle -1.90833e-014 -1.27222e-014
lhumerus -29.6227 5.57916 72.1784
lradius 46.9332
lwrist -4.02804
lhand -15.032 -37.9425
lfingers 7.12502
lthumb 11.1339 -8.25788
rfemur -13.8056 -6.99414 30.7155
rtibia 32.6594
rfoot -23.8114 -40.4265
rtoes 45.3118
lfemur -42.5665 -1.5491 -15.2985
ltibia 47.2361
lfoot -23.8279 11.5669
ltoes -13.5812
2260
root 11.8002 15.3029 -12.2914 19.0782 -22.1929 -8.36612
lowerback 23.2579 2.69268 -5.53812
upperback 0.824228 1.99026 -0.265227
thorax -12.3382 1.21378 2.21336
lowerneck -8.5483 4.29301 -1.21519
upperneck -9.05522 6.07192 4.69005
head -1.61259 3.02642 1.74759
rclavicle 6.36111e-014 -3.18055e-015
rhumerus -38.201 9.09144 -85.9046
rradius 40.6724
rwrist 3.78925
rhand -0.923545 -50.2639
rfingers 7.12502
rthumb 24.7055 -78.6888
lclavicle 6.36111e-014 -3.18055e-015
lhumerus -29.4709 5.53363 72.132
lradius 46.9448
lwrist -4.06172
lhand -15.3993 -38.2737
lfingers 7.12502
lthumb 10.7796 -8.57027
rfemur -13.9221 -6.78661 30.7181
rtibia 32.9596
rfoot -28.2762 -37.8784
rtoes 50.1897
lfemur -42.3456 -1.55773 -15.4945
ltibia 47.0663
lfoot -24.0362 11.5311
ltoes -13.0343
2261
root 11.8077 15.3026 -12.2348 19.0543 -22.197 -8.29558
lowerback 23.2123 2.62195 -5.59645
upperback 0.872469 1.88106 -0.306614
thorax -12.2483 1.16278 2.23914
lowerneck -8.71511 4.40634 -1.1862
upperneck -8.95783 6.21451 4.64233
head -1.55576 3.10111 1.73299
rclavicle 4.6118e-014 -2.8625e-014
rhumerus -38.177 9.50746 -86.0566
rradius 40.6853
rwrist 3.59566
rhand -1.27347 -49.9052
rfingers 7.12502
rthumb 24.3701 -78.3756
lclavicle 4.6118e-014 -2.8625e-014
lhumerus -29.3468 5.67715 72.0803
lradius 46.8038
lwrist -4.1514
lhand -15.2724 -38.1426
lfingers 7.12502
lthumb 10.9021 -8.44558
rfemur -14.5253 -6.72562 30.7902
rtibia 33.2043
rfoot -25.14 -39.6011
rtoes 47.4438
lfemur -42.0684 -1.69987 -15.6699
ltibia 46.9381
lfoot -24.2914 11.5725
ltoes -12.4137
2262
root 11.8146 15.3078 -12.1782 19.0043 -22.2207 -8.33321
lowerback 23.2832 2.61621 -5.68078
upperback 0.855716 1.85364 -0.246322
thorax -12.3098 1.15894 2.36272
lowerneck -8.39306 4.42353 -1.15602
upperneck -9.15113 6.23267 4.42261
head -1.66269 3.10459 1.64722
rclavicle 5.64548e-014 4.92986e-014
rhumerus -38.3637 9.85435 -86.1184
rradius 40.7505
rwrist 3.67455
rhand -1.30573 -49.4827
rfingers 7.12502
rthumb 24.3391 -77.9573
lclavicle 5.64548e-014 4.92986e-014
lhumerus -29.3787 5.87714 72.1085
lradius 46.667
lwrist -4.27892
lhand -14.675 -37.6999
lfingers 7.12502
lthumb 11.4782 -8.03409
rfemur -14.8113 -6.80441 30.9273
rtibia 33.5281
rfoot -24.6566 -39.4146
rtoes 46.2386
lfemur -41.6904 -1.84309 -15.7362
ltibia 46.8082
lfoot -24.5525 11.6497
ltoes -11.6289
2263
root 11.8223 15.3166 -12.1277 19.0926 -22.2119 -8.37364
lowerback 23.262 2.63501 -5.6415
upperback 0.796917 1.88975 -0.24191
thorax -12.368 1.17603 2.33223
lowerneck -8.08979 4.34056 -1.06702
upperneck -9.28455 6.11 4.21735
head -1.74105 3.03704 1.55661
rclavicle -4.77083e-015 -3.02153e-014
rhumerus -38.4975 9.72472 -86.0843
rradius 40.7152
rwrist 3.82275
rhand -1.04802 -49.3403
rfingers 7.12502
rthumb 24.5862 -77.7814
lclavicle -4.77083e-015 -3.02153e-014
lhumerus -29.4206 5.83537 72.1489
lradius 46.5568
lwrist -4.35217
lhand -14.6422 -37.6271
lfingers 7.12502
lthumb 11.5098 -7.96315
rfemur -15.1978 -6.88345 31.063
rtibia 33.7682
rfoot -24.5715 -38.8316
rtoes 45.0829
lfemur -41.5048 -1.96118 -15.795
ltibia 46.6941
lfoot -24.6245 11.7495
ltoes -10.9457
2264
root 11.8296 15.323 -12.0836 19.1977 -22.1745 -8.3526
lowerback 23.2339 2.59544 -5.67551
upperback 0.873146 1.82496 -0.298127
thorax -12.2577 1.14208 2.31238
lowerneck -8.53085 4.33168 -0.760095
upperneck -9.07859 6.05275 4.01377
head -1.58123 3.00843 1.45027
rclavicle -2.14687e-014 -3.33958e-014
rhumerus -38.1724 9.63132 -86.1408
rradius 40.5233
rwrist 3.82228
rhand -1.03261 -49.0438
rfingers 7.12502
rthumb 24.601 -77.4829
lclavicle -2.14687e-014 -3.33958e-014
lhumerus -29.1751 5.89235 72.0432
lradius 46.4382
lwrist -4.3062
lhand -14.501 -37.4985
lfingers 7.12502
lthumb 11.646 -7.84211
rfemur -15.7242 -6.75985 31.1819
rtibia 34.0881
rfoot -24.561 -38.6897
rtoes 45.7967
lfemur -41.3906 -2.04445 -15.9186
ltibia 46.5309
lfoot -24.5084 11.8401
ltoes -10.3511
